<?xml version="1.0" encoding="utf-8"?>
<!-- Generator: Adobe Illustrator 19.0.0, SVG Export Plug-In . SVG Version: 6.00 Build 0)  -->
<svg version="1.1" id="Layer_1" xmlns="http://www.w3.org/2000/svg" xmlns:xlink="http://www.w3.org/1999/xlink" x="0px" y="0px"
	 viewBox="0 0 500 500" style="enable-background:new 0 0 500 500;" xml:space="preserve">
<style type="text/css">
	.st0{fill:#794422;}
	.st1{fill:#502D17;}
	.st2{fill:#FFFFFF;}
	.st3{fill:#FF7F2B;}
	.st4{fill:#B1DFEC;}
</style>
<g id="XMLID_1_">
	<path id="XMLID_2_" class="st0" d="M307.2,177c151.5,75.4,81,218.1-50.6,225.4c-5.6,0.3-11.2,0-16.7-0.8
		c-125.3-18.6-170.3-144.8-52.1-219C223.8,160,269.1,158.1,307.2,177"/>
	<path id="XMLID_3_" class="st1" d="M297.7,399.3c66.3-38.3,97-146.9,41.5-242.1c3.1-16.7,5-32.2,5.3-46.4c0.5-4.6-3.9-8.1-8.3-6.6
		c-13,3.2-25.5,7.5-37.4,13c-9-6.3-18.4-8.4-26.1-8.8c-4.2-0.2-2.6-6.5-2.3-8.8c2-4.3,3.9-8,8.5-12.2c3.2-3-0.8-7-4.5-4.7
		c-6.1,2.9-9.9,5.8-14.1,10.1c-1.2,0.9-2.7,0.8-3.7,0.6c-0.7-0.1-1.3-0.8-1.4-1.6c-0.9-8.4,0-16,7.4-21.6c1.4-1.1,0-3.1-1.6-2.6
		c-12.3,3.7-17.6,12.2-21.9,22.7c-3.4-2.4-7.4-4.5-12-6.3c-0.8-0.4-1.8-0.7-2.5-0.1c-1.2,0.9-2.8,1.9-2.1,3.6
		c4.8,7,9.7,13.8,14.8,18.3c-12.2,2.6-23.7,6.9-34.5,13.2l-40.7-15.6c-5.3-2-10.9,2.4-10,8c2.3,24.2,4.7,47.5,8.2,56.6
		c-47.4,97.6-18.3,195.6,44.9,231.5h-98.1v33.2h285.5v-33.2H297.7z"/>
	<path id="XMLID_4_" class="st2" d="M250.9,186.8c18.2-45,58.3-50.8,86.8-22c23.6,23.9,24.3,89.7-33.2,101.8
		c58.4,48.5,18.5,130.8-48.2,130.8c-67-1-109.8-81.7-47.5-131.5c-58.1,2.6-68-58.2-46.9-93.2C181.1,140.7,236.8,135.7,250.9,186.8"
		/>
	<path id="XMLID_5_" class="st3" d="M277.3,247.7c1.6-2.4,1.5-5.5-0.1-7.8c-5.6-7.8-13.5-14.2-25.1-14.2c-11.9,0-18.9,6.4-25.4,15
		c-1.7,2.2-1.8,5.3-0.3,7.7c4.9,7.4,13.2,14.2,22.7,21.2c1.7,1.3,4.1,1.2,5.8-0.1C263.9,262.4,272.2,255.1,277.3,247.7"/>
	<path id="XMLID_6_" class="st4" d="M318.5,204.2c0,20.9-13.7,37.4-29.5,37.4s-28.6-16.9-28.6-37.8c0-20.9,12.8-37.8,28.6-37.8
		S318.5,183.3,318.5,204.2z M240.9,207.9c0,20.9-13.7,37.4-29.5,37.4c-15.8,0-28.6-16.9-28.6-37.8c0-20.9,12.8-37.8,28.6-37.8
		C227.1,169.7,240.9,187.1,240.9,207.9z"/>
	<path id="XMLID_9_" d="M307.5,208.7c0,13.7-8.6,24.7-18.5,24.7c-9.9,0-18.4-11.1-18.4-24.8s8.5-24.8,18.4-24.8
		C299,183.8,307.5,195,307.5,208.7z M230.5,208.3c0,13.7-8.6,24.7-18.5,24.7c-9.9,0-18.3-11.1-18.3-24.8c0-13.7,8.5-24.8,18.3-24.8
		C222,183.4,230.5,194.6,230.5,208.3z"/>
	<path id="XMLID_12_" class="st2" d="M293.3,196.8c0,4.2-3.3,7.6-7.4,7.6c-4.1,0-7.4-3.4-7.4-7.6c0-4.2,3.3-7.6,7.4-7.6
		C290,189.2,293.3,192.6,293.3,196.8z M221.9,196.3c0,4.2-3.3,7.6-7.4,7.6c-4.1,0-7.4-3.4-7.4-7.6s3.3-7.6,7.4-7.6
		C218.6,188.8,221.9,192.2,221.9,196.3z"/>
	<path id="XMLID_15_" class="st3" d="M188.6,415.2c0,0-0.2,9,5.9,9.1c1.9,5.7,8.6,5.7,9.7,0.7h7.7c0,0-0.7,3.9,3.8,3.8
		c4.6-0.1,4.1-4.1,4.1-4.1h7.2c0,0-1.1,4.1,3.6,4.1c4.7,0,4.5-4.8,4.5-4.8c2.6-1.7,5.7-1.5,5.7-6.6c0-1.1-0.3-2.3-0.8-3.6
		c-2.8-6.8-12.7-14.9-26.7-14.9c-9,0.1-17.3,5.5-22.9,10.9C188.7,411.5,188.6,415.2,188.6,415.2z M315.2,415.2c0,0,0,9.4-6.1,9.5
		c-1,5.4-8.8,5.4-9.5,0.4H292c0,0,0.5,3.9-4,3.8c-4.6-0.1-3.9-4.1-3.9-4.1h-7.2c0,0,0.9,4.1-3.8,4.1c-4.7,0-4.2-4.8-4.2-4.8
		c-2.6-1.7-5.7-1.5-5.7-6.6c0-1.1,0.3-2.3,0.8-3.6c2.8-6.8,12.7-14.9,26.7-14.9c9,0.1,16.5,5.5,22.3,10.5
		C315.2,412,315.2,415.2,315.2,415.2z"/>
</g>
</svg>
