<?xml version="1.0" encoding="utf-8"?>
<!-- Generator: Adobe Illustrator 19.0.0, SVG Export Plug-In . SVG Version: 6.00 Build 0)  -->
<svg version="1.1" id="Layer_1" xmlns="http://www.w3.org/2000/svg" xmlns:xlink="http://www.w3.org/1999/xlink" x="0px" y="0px"
	 viewBox="0 0 500 500" style="enable-background:new 0 0 500 500;" xml:space="preserve">
<style type="text/css">
	.st0{fill:#43A5EB;}
	.st1{fill:#F34B41;}
	.st2{fill:#FEFB1F;}
	.st3{fill:#4C4C4C;}
</style>
<g id="XMLID_51_">
	<circle id="XMLID_53_" class="st0" cx="250.2" cy="254.6" r="129.4"/>
	<circle id="XMLID_54_" class="st1" cx="250.7" cy="254.9" r="86.2"/>
	<circle id="XMLID_55_" class="st2" cx="250.7" cy="254.9" r="43.7"/>
	<path id="XMLID_69_" d="M85.2,164.7L90,157c1.9-3.1,4-4.9,6.2-5.4c2.2-0.5,4.5-0.1,6.7,1.3c0.8,0.5,1.4,1.1,2,1.8
		c0.6,0.7,1.1,1.5,1.4,2.4c0.4,0.9,0.6,1.8,0.6,2.7c0.1,1,0,1.9-0.4,2.8l15.5,1.2l-2,3.3l-15.2-1.3l-3.1,5.1l11.6,7.2l-1.9,3
		L85.2,164.7z M89.8,163.4l9.3,5.7l3.1-5.1c1.2-1.9,1.6-3.5,1.3-4.9c-0.3-1.4-1.2-2.5-2.5-3.3c-0.7-0.4-1.4-0.7-2.1-0.8
		c-0.7-0.1-1.4-0.1-2.1,0c-0.7,0.1-1.3,0.5-2,1c-0.7,0.5-1.3,1.3-1.9,2.2L89.8,163.4z M113.1,126.3l13.7-13.1l2.1,2.2l-11.3,10.9
		l7,7.4l9.4-9l2.3,2.4l-9.4,9l7.9,8.2l11.2-10.8l2.1,2.2l-13.6,13L113.1,126.3z M174.6,100.1c2.2,4,3.4,7.5,3.3,10.6
		c0,3.1-1.2,5.6-3.5,7.7c0.6,0.9,1.3,1.6,2.1,1.9c0.8,0.4,1.8,0.2,3-0.5c0.1-0.1,0.4-0.2,0.7-0.4c0.3-0.2,0.6-0.4,1-0.7
		c0.4-0.2,0.7-0.4,1-0.7c0.3-0.2,0.5-0.4,0.7-0.4l1.6,3l-1.7,1c-1.4,0.8-2.6,1.4-3.7,1.8c-1,0.4-2,0.5-2.9,0.3
		c-0.9-0.2-1.7-0.6-2.4-1.2c-0.7-0.6-1.4-1.5-2-2.6c-1.2,0.5-2.4,0.7-3.8,0.6c-1.4,0-2.8-0.4-4.2-1.1c-1.4-0.7-2.9-1.7-4.3-3
		c-1.4-1.4-2.7-3.1-4-5.3c-1.5-2.7-2.5-5.1-2.9-7.3c-0.4-2.1-0.4-4,0-5.6c0.4-1.6,1-2.9,1.8-4c0.9-1.1,1.8-1.9,2.8-2.5
		c1.2-0.7,2.6-1.1,4-1.2c1.4-0.1,2.9,0.1,4.5,0.7c1.6,0.6,3.1,1.6,4.5,3.1C171.7,95.6,173.2,97.6,174.6,100.1z M155.7,99.2
		c-0.5,2.5,0.3,5.7,2.4,9.5c1,1.7,2,3.2,3.1,4.5c1.1,1.2,2.2,2.2,3.4,2.9c1.2,0.7,2.3,1.1,3.5,1.1c1.2,0.1,2.3-0.2,3.4-0.8
		c0.7-0.4,1.4-1,1.9-1.8c0.6-0.8,0.9-1.8,1.1-3c0.2-1.2,0.1-2.5-0.3-4.1c-0.4-1.5-1.1-3.2-2.2-5.1c-1.4-2.4-2.7-4.3-4-5.6
		c-1.3-1.3-2.5-2.2-3.7-2.6c-1.2-0.5-2.3-0.7-3.2-0.6c-0.9,0.1-1.7,0.3-2.4,0.7c-0.9,0.5-1.6,1.2-2.1,2S155.9,98.2,155.7,99.2z
		 M191.4,76.7l3.8-1l0.1,0.1c0,0.1,0,0.3-0.1,0.6c-0.1,0.3-0.1,0.6-0.1,1l4.9,18.1c0.5,1.7,1,2.9,1.5,3.7c0.6,0.8,1.2,1.5,2,1.9
		c0.7,0.4,1.5,0.7,2.4,0.8c0.9,0.1,1.7,0,2.7-0.2c0.9-0.3,1.7-0.7,2.4-1.2c0.7-0.5,1.3-1.1,1.7-1.9c0.4-0.8,0.7-1.7,0.8-2.7
		c0.1-1-0.1-2.4-0.6-4.1l-5.3-19.5l3.2-0.9l5.3,19.4c0.5,2,0.8,3.7,0.7,5.1c-0.1,1.5-0.4,2.8-1.1,3.9c-0.7,1.1-1.5,2.1-2.6,2.9
		c-1.1,0.8-2.3,1.3-3.8,1.7c-1.4,0.4-2.8,0.5-4.1,0.4c-1.3-0.1-2.5-0.5-3.6-1.1c-1.1-0.6-2-1.5-2.8-2.6c-0.8-1.1-1.5-2.7-2.1-4.8
		L191.4,76.7z M240.3,67.6l15.4-0.1l0,2.9l-6.1,0.1l0.2,25.3l6.4-0.1l0,2.8l-16.1,0.1l0-2.9l6.1-0.1l-0.2-25.2l-5.8,0.1L240.3,67.6z
		 M284.7,70.6l8.9,2.2c3.5,0.9,5.9,2.3,7.1,4.2c1.2,2,1.5,4.2,0.8,6.8c-0.2,0.9-0.6,1.7-1.1,2.5c-0.5,0.8-1.1,1.5-1.8,2.1
		s-1.5,1.1-2.4,1.5c-0.9,0.4-1.8,0.5-2.8,0.5l3.7,15.1l-3.8-0.9l-3.4-14.9l-5.8-1.4l-3.2,13.3l-3.5-0.8L284.7,70.6z M287.4,74.6
		l-2.6,10.6l5.8,1.4c2.1,0.5,3.8,0.4,5-0.3c1.2-0.7,2-1.9,2.4-3.4c0.2-0.8,0.2-1.5,0.1-2.2c-0.1-0.7-0.3-1.4-0.7-2
		c-0.3-0.6-0.9-1.1-1.6-1.6c-0.7-0.5-1.6-0.8-2.7-1.1L287.4,74.6z M330.4,85.3l16.7,8.9l-1.5,2.7l-13.8-7.4l-4.8,9l11.4,6.1
		l-1.5,2.9l-11.4-6.1l-5.4,10l13.7,7.3l-1.5,2.7l-16.6-8.9L330.4,85.3z M358.3,113.7c0.4,0.3,0.8,0.7,1,1.2c0.3,0.5,0.5,1,0.6,1.5
		c0.1,0.5,0.1,1,0,1.5c-0.1,0.5-0.3,0.9-0.6,1.3c-0.3,0.4-0.7,0.7-1.2,1c-0.5,0.2-0.9,0.4-1.4,0.4c-0.5,0-1,0-1.6-0.2
		c-0.5-0.2-1-0.4-1.5-0.8c-0.5-0.3-0.8-0.7-1.1-1.2c-0.3-0.5-0.5-0.9-0.5-1.4c-0.1-0.5-0.1-1,0-1.5c0.1-0.5,0.3-0.9,0.7-1.4
		c0.3-0.4,0.7-0.7,1.2-1c0.5-0.2,0.9-0.4,1.4-0.4c0.5,0,1,0,1.5,0.2C357.4,113.1,357.9,113.4,358.3,113.7z M385.2,125l9.6,10.4
		l-2.1,2l-3.2-3.5l-13,12c-1.5,1.4-2.9,2.4-4.1,3c-1.3,0.6-2.5,1-3.7,1s-2.3-0.2-3.2-0.7c-0.9-0.4-1.8-1.1-2.5-1.9
		c-2-2.2-2.8-4.7-2.4-7.7l3.7-0.2c0,0.1-0.1,0.3-0.2,0.4c-0.1,0.2-0.2,0.3-0.3,0.5l0,0.8c0,0.2,0,0.5,0.1,0.8
		c0.1,0.3,0.2,0.7,0.3,1.1c0.1,0.4,0.3,0.8,0.5,1.1c0.2,0.4,0.4,0.7,0.7,1c1.1,1.2,2.4,1.7,3.7,1.5c1.4-0.2,3.1-1.3,5.2-3.3l13-12
		l-4-4.4L385.2,125z M414.2,171.6l-3.7-0.4c0-0.2,0.1-0.3,0.2-0.4c0.2-0.1,0.3-0.2,0.3-0.3c0.5-1,0.7-2.1,0.7-3.3
		c0-1.2-0.5-2.5-1.3-3.9c-0.8-1.3-1.8-2.2-3.1-2.6c-1.3-0.4-2.4-0.3-3.5,0.3c-0.6,0.4-1.1,0.8-1.5,1.3c-0.3,0.5-0.6,1.1-0.8,1.8
		c-0.2,0.7-0.2,1.6-0.2,2.7c0,1.1,0.2,2.5,0.4,4.2c0.2,1.6,0.3,3,0.3,4.2c0,1.2-0.2,2.2-0.5,3c-0.3,0.9-0.7,1.6-1.3,2.2
		c-0.6,0.6-1.2,1.1-2.1,1.6c-0.9,0.5-1.9,0.9-3.1,1.1c-1.1,0.2-2.3,0.1-3.4-0.2c-1.2-0.3-2.3-0.9-3.4-1.8c-1.1-0.9-2.1-2.1-3-3.7
		c-2-3.5-2.5-6.9-1.4-10.4l4.1,0c0,0.2-0.1,0.3-0.3,0.5c-0.2,0.1-0.3,0.2-0.4,0.4c-0.5,1.1-0.6,2.4-0.6,3.9c0.1,1.4,0.6,3,1.5,4.5
		c0.5,0.8,1,1.5,1.7,2s1.4,0.9,2.1,1.1c0.7,0.2,1.5,0.3,2.3,0.2c0.8-0.1,1.5-0.3,2.2-0.7c0.5-0.3,1-0.7,1.3-1.1
		c0.3-0.4,0.6-1,0.7-1.6c0.1-0.7,0.2-1.5,0.1-2.5c-0.1-1-0.2-2.3-0.4-3.9c-0.3-1.7-0.4-3.2-0.4-4.5c0-1.3,0.2-2.3,0.4-3.2
		c0.2-0.9,0.6-1.7,1.1-2.3c0.5-0.6,1.2-1.2,1.9-1.6c1-0.6,2-0.9,3.1-1c1.1-0.1,2.2,0.1,3.3,0.4c1.1,0.4,2.1,0.9,3,1.7
		c0.9,0.8,1.7,1.8,2.4,2.9c0.8,1.5,1.3,3,1.5,4.6C414.9,168.5,414.7,170.1,414.2,171.6z"/>
	<line id="XMLID_70_" x1="159.4" y1="420.4" x2="328.3" y2="420.4"/>
	<polyline id="XMLID_71_" class="st3" points="159.4,421.7 328.3,421.7 328.3,419.1 159.4,419.1 	"/>
	<path id="XMLID_72_" class="st3" d="M342.5,419.2c1.2,0.6,1.2,1.5,0,2.1l-15.7,7.9c-1.2,0.6-2.1,0-2.1-1.3V413
		c0-1.3,0.9-1.9,2.1-1.3L342.5,419.2z"/>
	<line id="XMLID_73_" x1="174.3" y1="409.1" x2="185.6" y2="420.4"/>
	<polyline id="XMLID_74_" class="st3" points="173.4,410.1 184.7,421.3 186.5,419.4 175.2,408.2 	"/>
	<line id="XMLID_75_" x1="166" y1="409.1" x2="177.3" y2="420.4"/>
	<polyline id="XMLID_76_" class="st3" points="165.1,410.1 176.4,421.3 178.2,419.4 166.9,408.2 	"/>
	<line id="XMLID_77_" x1="157.7" y1="409.1" x2="169" y2="420.4"/>
	<polyline id="XMLID_78_" class="st3" points="156.8,410.1 168.1,421.3 170,419.4 158.6,408.2 	"/>
	<line id="XMLID_79_" x1="169" y1="420.4" x2="157.7" y2="431.6"/>
	<polyline id="XMLID_80_" class="st3" points="168.1,419.4 156.8,430.7 158.6,432.5 170,421.3 	"/>
	<line id="XMLID_81_" x1="177.3" y1="420.4" x2="166" y2="431.6"/>
	<polyline id="XMLID_82_" class="st3" points="176.4,419.4 165.1,430.7 166.9,432.5 178.2,421.3 	"/>
	<line id="XMLID_83_" x1="185.6" y1="420.4" x2="174.3" y2="431.6"/>
	<polyline id="XMLID_84_" class="st3" points="184.7,419.4 173.4,430.7 175.2,432.5 186.5,421.3 	"/>
	<line id="XMLID_85_" x1="182.5" y1="409.1" x2="193.8" y2="420.4"/>
	<polyline id="XMLID_86_" class="st3" points="181.6,410.1 192.9,421.3 194.8,419.4 183.4,408.2 	"/>
	<line id="XMLID_87_" x1="193.8" y1="420.4" x2="182.5" y2="431.6"/>
	<polyline id="XMLID_88_" class="st3" points="192.9,419.4 181.6,430.7 183.4,432.5 194.8,421.3 	"/>
</g>
</svg>
